<?xml version="1.0" encoding="UTF-8"?>
<svg width="106px" height="31px" viewBox="0 0 106 31" version="1.1" xmlns="http://www.w3.org/2000/svg" xmlns:xlink="http://www.w3.org/1999/xlink">
    <!-- Generator: Sketch 41 (35326) - http://www.bohemiancoding.com/sketch -->
    <title>largesquiggle</title>
    <desc>Created with Sketch.</desc>
    <defs></defs>
    <g id="Page-1" stroke="none" stroke-width="1" fill="none" fill-rule="evenodd">
        <path d="M3,15.244898 C3,22.2893463 8.59644063,28 15.5,28 L15.5,28 C22.4035594,28 28,22.2893463 28,15.244898 C28,8.7106537 33.5964406,3 40.5,3 L40.5,3 C47.4035594,3 53,8.7106537 53,15.755102 C53,22.2893463 58.5964406,28 65.5,28 L65.5,28 C72.4035594,28 78,22.2893463 78,15.244898 C78,8.7106537 83.5964406,3 90.5,3 L90.5,3 C97.4035594,3 103,8.7106537 103,15.755102" id="largesquiggle" stroke="#99D875" stroke-width="5"></path>
    </g>
</svg>