<svg xmlns="http://www.w3.org/2000/svg" viewBox="0 0 105.67 108.22"><defs><style>.cls-1{fill:#f9b5aa;}.cls-2{fill:#f36e53;}.cls-3{fill:#ee7f65;}.cls-4{fill:none;stroke:#666766;stroke-miterlimit:10;stroke-width:2px;}</style></defs><title>Asset 1</title><g id="Layer_2" data-name="Layer 2"><g id="Layer_1-2" data-name="Layer 1"><polygon class="cls-1" points="49.75 58.46 0 108.22 99.51 108.22 49.75 58.46"/><polygon class="cls-2" points="49.75 58.46 0 8.71 0 108.22 49.75 58.46"/><polygon class="cls-3" points="49.75 58.46 99.51 8.71 0 8.71 49.75 58.46"/><path class="cls-4" d="M7.58,100.63h94.51c2.75,0,3.41-1.59,1.46-3.54L60.87,54.41a5,5,0,0,1,0-7.07L103.55,4.66c1.94-1.94,1.29-3.54-1.46-3.54H12.58c-2.75,0-5-.06-5-.12s0,2.13,0,4.88v95"/></g></g></svg>