<?xml version="1.0" encoding="UTF-8"?>
<svg width="54px" height="16px" viewBox="0 0 54 16" version="1.1" xmlns="http://www.w3.org/2000/svg" xmlns:xlink="http://www.w3.org/1999/xlink">
    <!-- Generator: Sketch 41 (35326) - http://www.bohemiancoding.com/sketch -->
    <title>smallsquiggle</title>
    <desc>Created with Sketch.</desc>
    <defs></defs>
    <g id="Page-1" stroke="none" stroke-width="1" fill="none" fill-rule="evenodd">
        <path d="M2,7.87755102 C2,11.2588862 4.79822031,14 8.25,14 L8.25,14 C11.7017797,14 14.5,11.2588862 14.5,7.87755102 C14.5,4.74111378 17.2982203,2 20.75,2 L20.75,2 C24.2017797,2 27,4.74111378 27,8.12244898 C27,11.2588862 29.7982203,14 33.25,14 L33.25,14 C36.7017797,14 39.5,11.2588862 39.5,7.87755102 C39.5,4.74111378 42.2982203,2 45.75,2 L45.75,2 C49.2017797,2 52,4.74111378 52,8.12244898" id="smallsquiggle" stroke="#52C0D3" stroke-width="3"></path>
    </g>
</svg>